<svg width="1200" height="630" viewBox="0 0 1200 630" fill="none" xmlns="http://www.w3.org/2000/svg">
  <rect width="1200" height="630" fill="#0a0a0f"/>

  <!-- Starry background pattern -->
  <circle cx="100" cy="80" r="1.5" fill="white" opacity="0.8"/>
  <circle cx="250" cy="120" r="1" fill="white" opacity="0.6"/>
  <circle cx="400" cy="60" r="1.5" fill="white" opacity="0.9"/>
  <circle cx="550" cy="140" r="1" fill="white" opacity="0.7"/>
  <circle cx="700" cy="90" r="1.5" fill="white" opacity="0.8"/>
  <circle cx="850" cy="130" r="1" fill="white" opacity="0.6"/>
  <circle cx="1000" cy="70" r="1.5" fill="white" opacity="0.9"/>
  <circle cx="1100" cy="110" r="1" fill="white" opacity="0.7"/>
  <circle cx="150" cy="520" r="1" fill="white" opacity="0.6"/>
  <circle cx="300" cy="560" r="1.5" fill="white" opacity="0.8"/>
  <circle cx="450" cy="540" r="1" fill="white" opacity="0.7"/>
  <circle cx="600" cy="580" r="1.5" fill="white" opacity="0.9"/>
  <circle cx="750" cy="530" r="1" fill="white" opacity="0.6"/>
  <circle cx="900" cy="570" r="1.5" fill="white" opacity="0.8"/>
  <circle cx="1050" cy="550" r="1" fill="white" opacity="0.7"/>

  <!-- Main content -->
  <text x="600" y="280" text-anchor="middle" font-family="system-ui, sans-serif" font-size="72" font-weight="700" fill="white">Claire McGonigal</text>
  <text x="600" y="360" text-anchor="middle" font-family="system-ui, sans-serif" font-size="32" fill="#71717a">Data Engineer</text>

  <!-- Accent line -->
  <rect x="500" y="400" width="200" height="4" rx="2" fill="#B50752"/>

  <!-- Subtitle -->
  <text x="600" y="480" text-anchor="middle" font-family="system-ui, sans-serif" font-size="24" fill="#e4e4e7">ETL Pipelines • Cloud Data Platforms • Data Governance</text>
</svg>
